PathFileType	4	(X/Y/Z)	pose2sim_150-449.trc
DataRate	CameraRate	NumFrames	NumMarkers	Units	OrigDataRate	OrigDataStartFrame	OrigNumFrames
50	50	7	22	m	50	337	300
Frame#	Time	Hip			RHip			RKnee			RAnkle			RBigToe			RSmallToe			RHeel			LHip			LKnee			LAnkle			LBigToe			LSmallToe			LHeel			Neck			Head			Nose			RShoulder			RElbow			RWrist			LShoulder			LElbow			LWrist			
		X1	Y1	Z1	X2	Y2	Z2	X3	Y3	Z3	X4	Y4	Z4	X5	Y5	Z5	X6	Y6	Z6	X7	Y7	Z7	X8	Y8	Z8	X9	Y9	Z9	X10	Y10	Z10	X11	Y11	Z11	X12	Y12	Z12	X13	Y13	Z13	X14	Y14	Z14	X15	Y15	Z15	X16	Y16	Z16	X17	Y17	Z17	X18	Y18	Z18	X19	Y19	Z19	X20	Y20	Z20	X21	Y21	Z21	X22	Y22	Z22	
337	6.74	0.13527740263522786	0.9764205711842374	-0.0637185650659431	0.0335352620759919	0.962030835443081	-0.057242911175979565	0.011116696251271846	0.5219625119617146	-0.07582505385374967	0.0023687945361668666	0.0935336119172786	-0.08685858347521122	0.010706042479341288	0.03792619970990977	0.07062608522944996	-0.04044366121339975	0.0402983441924883	0.02989434806596031	0.01025688392467182	0.050153077638711026	-0.12199426547402757	0.24125134883835295	0.9572461142817695	-0.07709416769066209	0.24223015023832928	0.5259379390110817	-0.1136391785255283	0.2450819262369311	0.09176119265754497	-0.10765886331206768	0.27368613657237395	0.03564317978114652	0.07415109456597514	0.3226232399121056	0.03654442268147145	0.006781100787154118	0.22823225584779433	0.047832876476403455	-0.14233182766647043	0.1514328997306976	1.577734843522201	-0.12147340471285918	0.14586057240674136	1.821886708560838	-0.07506792854863156	0.15567236895727016	1.6921183628779914	0.07686372344634743	-0.009643369980152389	1.484572318731283	-0.1169570379172513	-0.08335698820459381	1.260131680485103	0.06620572411897432	-0.142863294245563	1.39604895194219	0.2816322581099146	0.3114857606148429	1.4751749749216738	-0.1387678383758394	0.4017532612504814	1.2403791584474424	0.00786878376160072	0.45936394286468624	1.39183327469068	0.21721483434229327
338	6.76	0.13440975713682143	0.9863486086184163	-0.0673839610529478	0.03122249485032838	0.9687203287603094	-0.06016637730752793	0.013562504557172676	0.5206637220112894	-0.08604067384119803	0.0025665437741781887	0.09139602492000583	-0.08754484051013874	-0.0017220922406210365	0.035179887856439024	0.1075545658182994	-0.049692965390840234	0.035171713890616726	0.058048508618058846	0.012168239185898677	0.04066612876119488	-0.12951269301494042	0.2379838344282593	0.9661981522278867	-0.06769526179514866	0.24023647969670883	0.5202977444185757	-0.10976750521767925	0.24498602793855248	0.08697939068105452	-0.11097398588223127	0.28721852250302266	0.031640697276355184	0.08793043443014063	0.32588217001254627	0.027993488316121418	0.022704720967665737	0.22810415065781833	0.03788414093898723	-0.14389335038087228	0.14665719437654323	1.5767089585212968	-0.12118321498895512	0.14892470483536507	1.8194658685877405	-0.09153099730133181	0.14736891762063423	1.6960783328871258	0.041473876500554695	-0.013709651202314276	1.4753993606396405	-0.11805420127955175	-0.09262279313107934	1.247311763765891	0.05572288904469591	-0.1496842580440579	1.3782679203987989	0.2977525435888406	0.3093996939135481	1.4733805297364986	-0.13577285751791068	0.4003393739241112	1.2349226765235453	0.01505745772412499	0.47028693599333143	1.369584279266315	0.23036917670056847
339	6.78	0.13403661376007828	0.9773538479028805	-0.06376998199789796	0.030742648908488254	0.961762263168454	-0.057303434877114506	0.012454226317147559	0.51748741147888	-0.07980516488739485	0.000898974580934412	0.09384450821076869	-0.08512765195383626	0.00042964457326523777	0.03472358876637622	0.07810049092155882	-0.04873525998159012	0.03608540960218989	0.03468139512028126	0.011864767875876224	0.04952805855815353	-0.12393539561154233	0.23950257459317445	0.9593452791889598	-0.07545772960562863	0.24159668626612193	0.5228755427527697	-0.11335634359185214	0.2465290080915486	0.09155015983730436	-0.10999706786848336	0.27333322110957736	0.03336054845022913	0.06823135461321415	0.3247519360245074	0.035897139919034066	0.009243729867011111	0.22818015908881495	0.04537664244040759	-0.1415240953546181	0.14999394440666763	1.5780575586915695	-0.12471779200518139	0.14713575685381433	1.824165478936953	-0.07823709449051124	0.14755684886711243	1.693400523012192	0.06302779838126644	-0.010442836179787245	1.4810605836393769	-0.1276458475889575	-0.09431639233827656	1.2560415909239242	0.04497374473047555	-0.165280705535887	1.3629335598985637	0.2788517078091528	0.3126758509556399	1.4755322179701302	-0.14477628313756524	0.3989412391397569	1.2366033478805754	-0.01726919719072556	0.47695195794569006	1.3555796127627382	0.22497283306740934
340	6.8	0.13558004366470694	0.9759201031380037	-0.06927241618542561	0.03203659882566202	0.9624364079456618	-0.05980256615373984	0.012313810073287062	0.5215543248640993	-0.07893623519742242	0.0031795870381430198	0.09488906349971282	-0.08674643988761088	0.007114898342213514	0.03791270188789246	0.0797873907685205	-0.04196469016575885	0.04072662996130252	0.038679474762247104	0.010359010475559436	0.0528717643713255	-0.12285190093205843	0.24094117176919497	0.9573299958962029	-0.08418727170788577	0.2404802338700008	0.5237894150498033	-0.11593502332626265	0.24519673089285077	0.09058972494822577	-0.11136089636458493	0.27705833341974395	0.035485395917165465	0.07578769590390146	0.324811077488765	0.039608250591679925	0.011521884677580491	0.22658430335287164	0.04470250598510584	-0.1466009979116235	0.15073645753953782	1.578595493654394	-0.12479445167280338	0.14488281060042776	1.8236946323419316	-0.07915712476227484	0.14981509576366617	1.6945169326295715	0.07156152742934886	-0.008942821849474848	1.4821830059780339	-0.1276203418778473	-0.09722460610701374	1.2566015447339378	0.03949256245458011	-0.1581591070997462	1.3483248371974828	0.2922695224099679	0.31199018408003726	1.472453713494634	-0.13596040318105654	0.402954842930369	1.242427641643596	-0.029112009973558783	0.476025227762886	1.3379769659080485	0.22247438763195462
341	6.82	0.1350027380674562	0.9757372721658107	-0.061907112721892615	0.032815759565778084	0.9624361596689989	-0.05639103088235833	0.013203239758282113	0.5222345949617161	-0.07712359280741392	0.0019116990579322816	0.09416690492853151	-0.08656375781795579	0.006232972525741146	0.03581949632748638	0.07720912093620536	-0.042279181377730526	0.03961887208165693	0.03897887271797495	0.008295204464864024	0.05042801590537081	-0.11592094946060987	0.24140641339356503	0.9614952444986996	-0.08004735152076517	0.24056764570273492	0.5232889044937812	-0.11753513210810176	0.24375355516063063	0.09227965771907796	-0.11190646366821091	0.2756945519627434	0.03639410736850164	0.07756023223468389	0.3235883836185144	0.04050771680105724	0.018193256748285046	0.22839360027336483	0.04481856996524514	-0.14579505740748377	0.14992296263666036	1.5798617643017816	-0.1185215591643194	0.14433159602090048	1.8230713338792774	-0.07405441137629488	0.15054735327593977	1.6968699920636219	0.07335870812580876	-0.009384530191083137	1.4823792776309388	-0.12163604052748497	-0.10308908740050755	1.2575208591085725	0.020342861811680622	-0.15840667683325116	1.3315157954302528	0.3128496092909278	0.310415228229828	1.4753489678035987	-0.13599696195629488	0.4076546399566878	1.2404275630235706	-0.044260477447121666	0.4807344858456637	1.3139170794824275	0.20577450039225062
342	6.84	0.1327292528838865	0.983604368596399	-0.06725819234145933	0.03027789848347527	0.9679964939632606	-0.06075650417971869	0.013677245160421687	0.5217579309017535	-0.08124382488449677	0.0010945566321922749	0.08802337436693684	-0.08677629547361937	-0.00893851212662053	0.03943305104778661	0.11057746619653724	-0.054702891493926944	0.03970105123589876	0.057038554122402545	0.012285489725795535	0.03978946281401339	-0.1239450180546361	0.23336418549068486	0.9624535633082231	-0.0751887814615735	0.2393414355364396	0.5202740354929347	-0.11451470212781507	0.24485690059583398	0.08635718397793887	-0.10890661493549074	0.2884171578618016	0.03266176579549366	0.0876427265879555	0.32519130866487345	0.029155782988819597	0.02550727952509837	0.22680562009782282	0.04221283224146564	-0.14410788665409707	0.14759731638470752	1.580047397280017	-0.12136231622694608	0.14681031116120602	1.8199033416073456	-0.07727723618296102	0.14541047755025008	1.6962274082277753	0.03210441062469552	-0.01370836662875933	1.4809632549870912	-0.11419112632706588	-0.09533689601929585	1.2477176682258437	0.030525803066443865	-0.16749917298275094	1.3073279614383801	0.3319782169680702	0.30705442558564516	1.474540066259725	-0.1408425238571078	0.40155628238058155	1.2399104173568305	-0.011939046336479794	0.4974374425568902	1.303986346951723	0.22784093480393683
343	6.86	0.13366681397512867	0.9765846119246986	-0.06482614992593982	0.03115389638115754	0.9632356567940626	-0.05923816388321785	0.014450639778390475	0.5215341195909242	-0.07893520961386652	-0.0006979862527516848	0.09336537365804681	-0.085987668598612	0.006866551113328691	0.03827812650666363	0.08533147339240539	-0.04379111673288021	0.03931552785401019	0.043431910538720635	0.008201729959802964	0.04965404952257919	-0.12431096317393132	0.2374281805445986	0.9569381447438127	-0.08399899840731753	0.24005246362370483	0.5212342130191755	-0.11663298588169145	0.24489673609867116	0.08942252828973987	-0.10857369001510173	0.28090696071344806	0.03790373302872358	0.08501121581399465	0.325317289372219	0.038567350804081496	0.019295082129873867	0.22625275691637503	0.04624462844883829	-0.14525859378467312	0.15050865281104284	1.581511185542295	-0.11967883974031379	0.14285369867918066	1.8247542088121624	-0.07762247191108834	0.1508912212045997	1.6953043508444208	0.07617542006048338	-0.006360548758659664	1.4822930193090025	-0.11504994593651233	-0.09444141482718416	1.2534212750219487	0.027561049842979298	-0.14649447902455853	1.3043727772761404	0.35601884261965544	0.3099153560247334	1.4742934294295205	-0.13390676784354422	0.40815089455410475	1.2401252192353762	-0.05335054568340072	0.4986428093139023	1.2809120168105674	0.2385052571972055
